<?xml version="1.0" standalone="no"?>
<!DOCTYPE svg PUBLIC "-//W3C//DTD SVG 20010904//EN"
 "http://www.w3.org/TR/2001/REC-SVG-20010904/DTD/svg10.dtd">
<svg version="1.0" xmlns="http://www.w3.org/2000/svg"
 width="2480.000000pt" height="1489.000000pt" viewBox="0 0 2480.000000 1489.000000"
 preserveAspectRatio="xMidYMid meet">

<g transform="translate(0.000000,1489.000000) scale(0.100000,-0.100000)"
fill="#000000" stroke="none">
<path d="M0 7445 l0 -7445 12400 0 12400 0 0 7445 0 7445 -12400 0 -12400 0 0
-7445z m19217 6993 c-3 -8 -6 -5 -6 6 -1 11 2 17 5 13 3 -3 4 -12 1 -19z m-10
-40 c-3 -8 -6 -5 -6 6 -1 11 2 17 5 13 3 -3 4 -12 1 -19z m-10 -50 c-3 -8 -6
-5 -6 6 -1 11 2 17 5 13 3 -3 4 -12 1 -19z m-10 -40 c-3 -8 -6 -5 -6 6 -1 11
2 17 5 13 3 -3 4 -12 1 -19z m280 -10 c-3 -8 -6 -5 -6 6 -1 11 2 17 5 13 3 -3
4 -12 1 -19z m-302 -75 c-9 -32 -48 -134 -86 -226 -38 -92 -69 -173 -69 -179
0 -23 19 7 49 77 33 76 39 71 16 -14 -7 -30 -12 -66 -9 -80 6 -30 -21 -145
-73 -306 -109 -341 -286 -692 -497 -987 -47 -66 -79 -119 -72 -121 18 -6 -97
-140 -264 -308 -344 -345 -756 -621 -1196 -803 -272 -111 -640 -176 -1184
-207 -256 -15 -955 -6 -1270 16 -776 53 -1143 105 -2850 405 -2039 358 -2277
390 -2880 390 -369 1 -554 -14 -875 -70 -359 -63 -665 -154 -945 -283 -68 -31
-123 -61 -220 -120 l-35 -22 35 45 c57 73 268 280 375 369 237 196 506 386
645 456 226 114 563 214 910 270 166 27 166 27 150 16 -8 -6 -25 -11 -37 -11
-12 0 -24 -4 -27 -8 -2 -4 66 0 152 10 525 58 1193 41 1847 -47 350 -47 567
-84 1530 -265 2005 -376 2658 -476 3270 -499 295 -11 685 6 805 36 25 6 25 6
-5 13 -23 6 -25 8 -8 9 42 2 300 52 423 83 348 85 791 262 1015 405 173 111
421 347 598 568 261 327 571 885 758 1367 19 47 35 85 37 83 2 -2 -4 -30 -13
-62z m292 25 c-3 -8 -6 -5 -6 6 -1 11 2 17 5 13 3 -3 4 -12 1 -19z m-10 -50
c-3 -8 -6 -5 -6 6 -1 11 2 17 5 13 3 -3 4 -12 1 -19z m-10 -50 c-3 -8 -6 -5
-6 6 -1 11 2 17 5 13 3 -3 4 -12 1 -19z m-10 -50 c-3 -8 -6 -5 -6 6 -1 11 2
17 5 13 3 -3 4 -12 1 -19z m-10 -40 c-3 -8 -6 -5 -6 6 -1 11 2 17 5 13 3 -3 4
-12 1 -19z m-10 -40 c-3 -8 -6 -5 -6 6 -1 11 2 17 5 13 3 -3 4 -12 1 -19z
m-37 -164 c-16 -71 -45 -217 -65 -324 -130 -712 -338 -1404 -534 -1775 -160
-304 -524 -822 -730 -1037 -25 -27 -43 -48 -39 -48 5 0 68 63 197 200 29 30
22 19 -20 -35 -89 -112 -383 -405 -509 -507 -417 -337 -898 -589 -1399 -733
-945 -270 -2170 -314 -3906 -139 -704 70 -925 102 -1780 258 -1445 263 -2146
341 -3280 362 -473 9 -729 -10 -1055 -76 -480 -98 -950 -314 -1305 -599 l-90
-72 78 74 c193 185 476 356 807 489 80 32 129 56 110 53 -19 -2 19 13 85 35
119 38 269 73 458 107 53 10 97 20 97 23 0 3 -171 68 -380 144 l-380 138 -38
-28 c-130 -97 -516 -467 -619 -594 -86 -106 -195 -258 -263 -370 -95 -155
-202 -320 -207 -320 -3 0 1 10 9 23 8 12 52 87 97 166 414 721 886 1201 1456
1482 298 147 737 268 1319 364 87 14 160 24 163 21 5 -5 2 -5 -175 -37 -68
-11 -121 -23 -119 -26 3 -2 78 7 168 21 394 62 705 86 1174 93 410 6 656 -2
1260 -43 661 -44 984 -75 2555 -249 924 -102 1544 -168 1965 -207 221 -21 870
-17 1070 5 167 19 471 68 565 92 70 17 38 18 -63 1 -113 -18 -81 -3 48 23 519
105 1032 285 1522 532 310 157 419 235 633 455 187 192 316 361 465 609 219
364 445 870 607 1361 40 122 74 221 76 219 1 -1 -11 -60 -28 -131z m-10493
-1310 c-3 -3 -12 -4 -19 -1 -8 3 -5 6 6 6 11 1 17 -2 13 -5z m9593 -114 c-22
-31 -40 -46 -40 -34 0 8 51 64 58 64 2 0 -6 -13 -18 -30z m-13422 -2823 l30
-12 -109 -87 -110 -87 68 99 c37 55 73 100 79 100 7 0 25 -6 42 -13z m-466
-569 c-11 -18 -32 -53 -46 -78 -14 -25 -26 -41 -26 -36 0 12 79 146 86 146 3
0 -3 -15 -14 -32z m3895 -1000 c21 -19 23 -30 23 -110 0 -142 55 -128 -490
-128 l-469 0 -20 -29 c-17 -23 -21 -44 -21 -102 0 -117 -32 -109 414 -109 397
0 412 -2 497 -46 34 -17 100 -105 117 -155 25 -76 10 -389 -19 -389 -4 0 -12
-14 -19 -30 -13 -32 -87 -90 -113 -90 -8 0 -28 -7 -43 -15 -25 -13 -108 -15
-556 -15 l-527 0 -20 29 c-28 39 -30 154 -3 200 l17 31 485 0 c576 1 530 -10
530 121 0 129 33 119 -401 119 -379 0 -401 2 -489 42 -32 15 -110 88 -110 104
0 6 -7 17 -15 24 -9 7 -15 29 -15 51 0 21 -4 41 -10 44 -6 3 -10 52 -10 110 0
58 4 107 10 110 6 3 10 20 10 37 0 77 125 198 204 198 19 0 38 5 41 10 4 6
179 10 492 10 486 0 487 0 510 -22z m1537 0 c18 -26 23 -202 6 -228 -8 -13
-74 -16 -462 -20 l-453 -5 -38 -23 c-66 -42 -72 -66 -72 -327 0 -210 2 -233
20 -270 40 -79 82 -85 591 -85 l413 0 7 -35 c11 -61 1 -205 -16 -216 -24 -15
-953 -5 -1010 11 -159 46 -236 123 -276 278 -20 76 -20 578 0 642 46 148 111
219 241 264 27 9 67 16 89 16 23 0 48 5 56 10 9 6 187 10 452 10 l437 0 15
-22z m1303 4 c72 -15 116 -37 162 -82 73 -71 91 -135 91 -326 0 -181 -14 -233
-85 -312 -40 -45 -57 -54 -142 -78 -17 -5 -16 -19 1 -37 8 -8 26 -31 39 -50
14 -20 43 -58 66 -84 104 -121 171 -208 171 -219 0 -28 -41 -36 -172 -32 -146
3 -128 -6 -208 103 -19 25 -50 64 -67 85 -18 20 -33 41 -33 46 0 5 -10 20 -23
34 -18 20 -73 92 -83 108 -1 2 -387 4 -541 2 -10 0 -13 -43 -13 -180 0 -167
-1 -180 -19 -190 -11 -5 -67 -10 -125 -10 -162 0 -146 -68 -146 609 l0 569 26
31 26 31 512 -3 c324 -2 530 -7 563 -15z m1268 8 c3 -5 18 -10 33 -10 39 0 94
-50 126 -112 15 -29 45 -82 66 -118 22 -36 49 -85 60 -110 11 -24 24 -47 28
-50 12 -9 32 -49 32 -64 0 -7 6 -19 14 -25 8 -7 26 -35 40 -64 25 -49 38 -72
116 -212 45 -81 81 -146 125 -230 20 -38 43 -77 51 -86 8 -8 14 -21 14 -28 0
-6 9 -25 21 -40 11 -16 19 -39 17 -52 -3 -24 -5 -24 -131 -27 -141 -3 -160 2
-182 51 -7 18 -30 59 -50 92 -19 33 -38 68 -41 78 -4 9 -16 20 -28 22 -11 3
-194 4 -405 3 l-383 -3 -24 -40 c-13 -22 -33 -58 -44 -80 -33 -65 -61 -109
-74 -117 -13 -9 -248 -11 -270 -2 -17 7 -22 49 -6 59 5 3 17 23 26 43 8 20 20
44 25 52 5 8 22 40 39 70 17 30 39 69 50 85 10 17 19 38 19 47 1 9 5 18 10 20
7 3 43 65 119 208 13 25 41 77 63 115 21 39 48 88 59 110 11 22 38 72 60 110
21 39 54 99 72 134 39 77 115 161 146 161 11 0 24 5 27 10 3 6 44 10 90 10 46
0 87 -4 90 -10z m2007 -12 c17 -20 19 -35 16 -125 -1 -56 -7 -105 -11 -110 -5
-4 -135 -10 -290 -13 l-282 -5 -3 -470 c-2 -428 -4 -471 -19 -482 -21 -16
-216 -18 -244 -3 -18 10 -19 26 -19 485 l0 475 -279 0 c-236 0 -280 2 -291 15
-8 9 -13 52 -15 111 -2 81 1 99 17 119 l19 25 691 0 691 0 19 -22z m1412 0
c23 -32 23 -210 0 -232 -14 -14 -67 -16 -435 -16 -441 0 -494 -4 -537 -44 -47
-42 -52 -73 -52 -305 0 -268 10 -304 90 -340 30 -14 99 -16 482 -19 440 -3
448 -3 459 -24 16 -29 8 -200 -10 -222 -13 -16 -50 -17 -485 -13 -495 5 -526
7 -626 53 -53 24 -124 95 -140 139 -7 16 -16 38 -21 48 -53 99 -52 688 1 741
6 6 10 19 10 31 0 11 21 46 46 77 54 67 143 115 227 125 29 3 59 9 67 14 8 5
216 9 462 9 l447 0 15 -22z m441 -1 c24 -22 25 -23 27 -247 l3 -225 393 -3
c310 -2 392 0 392 10 1 7 0 110 0 228 l-1 216 26 22 c22 19 37 22 114 22 67 0
97 -4 120 -17 l31 -18 0 -582 c0 -537 -1 -584 -17 -603 -15 -18 -30 -20 -125
-20 -157 0 -149 -15 -148 268 l1 227 -395 3 -396 2 0 -232 c0 -201 -2 -234
-17 -250 -23 -26 -217 -27 -245 -1 -17 15 -18 47 -18 603 l0 588 23 15 c16 12
47 16 115 16 83 1 95 -1 117 -22z m-5345 -1682 c95 -25 127 -63 141 -165 10
-71 2 -80 -76 -80 -78 0 -95 6 -95 35 0 36 -34 58 -87 57 -68 -1 -73 -12 -73
-158 0 -120 0 -123 26 -143 32 -25 55 -26 94 -6 19 10 32 27 38 48 l8 32 89 3
88 3 -7 -65 c-7 -75 -32 -123 -81 -160 -33 -25 -38 -26 -184 -26 -83 0 -151 3
-151 8 0 4 -14 15 -31 24 -19 11 -39 37 -55 73 -25 54 -26 61 -22 228 l3 172
30 45 c26 39 40 48 95 67 77 26 172 29 250 8z m1135 1 c114 -30 142 -66 157
-203 15 -137 0 -295 -32 -344 -48 -72 -69 -79 -255 -79 -103 0 -165 4 -165 10
0 6 -6 10 -14 10 -27 0 -73 69 -85 127 -14 73 -14 264 1 337 9 48 18 63 53 94
26 22 61 41 91 48 68 16 189 16 249 0z m-3297 -21 c23 -9 52 -31 65 -49 19
-27 22 -44 22 -128 0 -88 -2 -99 -24 -122 -14 -14 -30 -26 -38 -26 -23 0 -13
-25 19 -45 39 -24 46 -46 47 -153 l1 -83 -92 3 -93 3 0 71 c-1 91 -11 104 -80
104 -61 0 -64 -4 -57 -77 2 -28 2 -63 -2 -77 -7 -27 -7 -27 -94 -24 l-87 3 -3
290 c-1 160 0 301 3 314 l6 24 182 -5 c140 -4 192 -10 225 -23z m1172 10 c5
-3 10 -35 10 -70 l0 -64 -142 -3 -143 -3 -3 -47 -3 -48 140 0 c157 0 143 8
143 -78 0 -24 -3 -46 -6 -49 -3 -3 -65 -6 -138 -7 l-133 -1 -3 -47 -3 -47 148
-3 148 -3 3 -72 3 -73 -246 0 -245 0 0 303 c0 228 3 306 12 315 10 10 65 12
230 8 120 -2 222 -7 228 -11z m5585 -12 c44 -23 75 -67 75 -106 0 -52 -7 -57
-85 -57 -67 0 -74 2 -89 25 -14 21 -24 25 -69 25 -58 0 -77 -12 -77 -47 0 -33
35 -50 115 -58 177 -17 225 -57 225 -190 0 -78 -23 -131 -73 -169 -33 -25 -38
-26 -186 -26 -144 0 -153 1 -191 25 -49 31 -60 51 -63 117 l-2 53 69 3 c67 3
70 2 95 -29 49 -58 172 -49 179 14 2 16 -2 34 -8 42 -6 7 -54 18 -113 25 -122
15 -142 22 -184 63 -33 31 -33 32 -33 128 l0 97 39 40 c47 48 59 51 216 48
101 -1 126 -5 160 -23z m-2283 5 c93 -28 136 -170 84 -279 -9 -20 -29 -42 -44
-48 l-26 -12 37 -32 c45 -39 57 -71 57 -147 0 -91 1 -90 -101 -90 l-89 0 0 80
c0 92 -7 100 -89 100 -58 0 -64 -9 -61 -93 4 -95 11 -88 -87 -85 l-88 3 -3
295 c-1 162 0 300 3 307 6 17 351 18 407 1z m1159 -1 c62 -22 82 -47 108 -143
14 -52 14 -260 0 -305 -23 -73 -56 -114 -117 -146 -17 -9 -84 -13 -227 -13
-176 0 -204 2 -209 16 -8 21 -8 589 1 597 12 13 406 7 444 -6z m-10071 -4002
c0 -24 -5 -35 -15 -35 -10 0 -15 11 -15 35 0 24 5 35 15 35 10 0 15 -11 15
-35z m50 0 c0 -24 -5 -35 -15 -35 -10 0 -15 11 -15 35 0 24 5 35 15 35 10 0
15 -11 15 -35z m15680 0 c0 -24 -5 -35 -15 -35 -10 0 -15 11 -15 35 0 24 5 35
15 35 10 0 15 -11 15 -35z m50 0 c0 -24 -5 -35 -15 -35 -10 0 -15 11 -15 35 0
24 5 35 15 35 10 0 15 -11 15 -35z m-12966 -5 c17 -6 24 -14 20 -24 -5 -12
-10 -13 -26 -5 -31 17 -119 5 -135 -17 -20 -28 5 -57 58 -67 24 -5 55 -11 68
-13 13 -3 37 -19 54 -35 25 -26 29 -35 24 -66 -14 -86 -108 -121 -229 -87 -20
6 -25 34 -5 34 6 0 31 -5 55 -10 108 -25 192 51 128 115 -18 17 -40 26 -85 31
-89 10 -129 52 -100 105 21 41 114 62 173 39z m1237 -70 l79 85 0 -167 c0
-143 -2 -168 -15 -168 -13 0 -15 21 -15 127 l0 127 -65 -64 -65 -64 -65 64
-65 64 0 -127 c0 -106 -2 -127 -15 -127 -13 0 -15 25 -15 168 l1 167 81 -85
80 -85 79 85z m670 0 l79 85 0 -167 c0 -143 -2 -168 -15 -168 -13 0 -15 21
-15 127 l0 127 -65 -64 -65 -64 -65 64 -65 64 0 -127 c0 -106 -2 -127 -15
-127 -13 0 -15 25 -15 168 l1 167 81 -85 80 -85 79 85z m4300 -98 l64 -73 3
126 c2 102 5 125 17 125 13 0 15 -27 15 -167 0 -161 -1 -167 -18 -147 -9 12
-60 70 -112 129 l-95 108 -3 -126 c-2 -104 -5 -127 -17 -127 -13 0 -15 27 -15
166 l0 166 49 -54 c26 -29 77 -86 112 -126z m3820 0 l64 -73 3 126 c2 102 5
125 17 125 13 0 15 -27 15 -167 0 -161 -1 -167 -18 -147 -9 12 -60 70 -112
129 l-95 108 -3 -126 c-2 -104 -5 -127 -17 -127 -13 0 -15 27 -15 166 l0 166
49 -54 c26 -29 77 -86 112 -126z m680 98 l79 85 0 -167 c0 -143 -2 -168 -15
-168 -13 0 -15 21 -15 127 l0 127 -65 -64 -65 -64 -65 64 -65 64 0 -127 c0
-106 -2 -127 -15 -127 -13 0 -15 25 -15 168 l1 167 81 -85 80 -85 79 85z
m1140 -98 l64 -73 3 126 c2 102 5 125 17 125 13 0 15 -27 15 -167 0 -161 -1
-167 -18 -147 -9 12 -60 70 -112 129 l-95 108 -3 -126 c-2 -104 -5 -127 -17
-127 -13 0 -15 27 -15 166 l0 166 49 -54 c26 -29 77 -86 112 -126z m-14001
153 c0 -12 -13 -15 -55 -15 l-55 0 0 -145 c0 -138 -1 -145 -20 -145 -19 0 -20
7 -20 145 l0 145 -55 0 c-42 0 -55 3 -55 15 0 13 21 15 130 15 109 0 130 -2
130 -15z m360 -45 l0 -60 100 0 100 0 0 60 c0 47 3 60 15 60 13 0 15 -24 15
-160 0 -136 -2 -160 -15 -160 -12 0 -15 16 -15 85 l0 85 -100 0 -100 0 0 -85
c0 -69 -3 -85 -15 -85 -13 0 -15 24 -15 160 0 136 2 160 15 160 12 0 15 -13
15 -60z m810 45 c0 -12 -18 -15 -100 -15 l-100 0 0 -40 0 -40 85 0 c69 0 85
-3 85 -15 0 -12 -16 -15 -85 -15 l-85 0 0 -75 0 -75 105 0 c87 0 105 -3 105
-15 0 -12 -20 -15 -120 -15 l-120 0 0 160 0 160 115 0 c96 0 115 -3 115 -15z
m1410 -103 c0 -114 1 -119 26 -143 19 -18 37 -24 69 -24 32 0 50 6 69 24 25
24 26 29 26 143 0 111 1 118 20 118 19 0 20 -7 20 -106 0 -77 -4 -115 -16
-140 -43 -90 -175 -99 -230 -17 -15 22 -19 52 -22 146 -4 113 -3 117 17 117
20 0 21 -5 21 -118z m1940 -42 c0 -136 -2 -160 -15 -160 -13 0 -15 24 -15 160
0 136 2 160 15 160 13 0 15 -24 15 -160z m590 145 c0 -12 -13 -15 -55 -15
l-55 0 0 -145 c0 -138 -1 -145 -20 -145 -19 0 -20 7 -20 145 l0 145 -55 0
c-42 0 -55 3 -55 15 0 13 21 15 130 15 109 0 130 -2 130 -15z m1080 -4 c73
-38 104 -121 75 -197 -24 -63 -72 -97 -143 -102 -47 -3 -63 0 -92 20 -107 73
-108 203 -1 275 42 29 112 31 161 4z m660 4 c0 -12 -18 -15 -105 -15 l-105 0
0 -45 0 -45 90 0 c73 0 90 -3 90 -15 0 -12 -17 -15 -90 -15 l-90 0 0 -85 c0
-69 -3 -85 -15 -85 -13 0 -15 24 -15 160 l0 160 120 0 c100 0 120 -2 120 -15z
m1030 0 c0 -12 -18 -15 -100 -15 l-100 0 0 -40 0 -40 85 0 c69 0 85 -3 85 -15
0 -12 -16 -15 -85 -15 l-85 0 0 -75 0 -75 105 0 c87 0 105 -3 105 -15 0 -12
-20 -15 -120 -15 l-120 0 0 160 0 160 115 0 c96 0 115 -3 115 -15z m1170 0 c0
-12 -13 -15 -55 -15 l-55 0 0 -145 c0 -138 -1 -145 -20 -145 -19 0 -20 7 -20
145 l0 145 -55 0 c-42 0 -55 3 -55 15 0 13 21 15 130 15 109 0 130 -2 130 -15z
m570 0 c0 -12 -18 -15 -100 -15 l-100 0 0 -40 0 -40 85 0 c69 0 85 -3 85 -15
0 -12 -16 -15 -85 -15 l-85 0 0 -75 0 -75 105 0 c87 0 105 -3 105 -15 0 -12
-20 -15 -120 -15 l-120 0 0 160 0 160 115 0 c96 0 115 -3 115 -15z m544 -6
c36 -29 35 -72 -3 -108 l-29 -27 44 -82 c38 -70 42 -82 27 -82 -13 0 -33 27
-66 90 l-48 90 -55 0 -54 0 0 -90 c0 -73 -3 -90 -15 -90 -13 0 -15 24 -15 160
l0 160 94 0 c79 0 97 -3 120 -21z m596 6 c0 -12 -13 -15 -55 -15 l-55 0 0
-145 c0 -138 -1 -145 -20 -145 -19 0 -20 7 -20 145 l0 145 -55 0 c-42 0 -55 3
-55 15 0 13 21 15 130 15 109 0 130 -2 130 -15z m480 -145 c68 -136 77 -160
61 -160 -14 0 -30 23 -62 90 l-43 91 -40 -3 c-41 -3 -41 -3 -83 -90 -33 -68
-47 -88 -63 -88 -18 0 -10 19 60 160 44 88 82 160 85 160 3 0 41 -72 85 -160z
m430 0 c0 -136 -2 -160 -15 -160 -13 0 -15 24 -15 160 0 136 2 160 15 160 13
0 15 -24 15 -160z m1850 145 c0 -12 -18 -15 -100 -15 l-100 0 0 -40 0 -40 85
0 c69 0 85 -3 85 -15 0 -12 -16 -15 -85 -15 l-85 0 0 -75 0 -75 105 0 c87 0
105 -3 105 -15 0 -12 -20 -15 -120 -15 l-120 0 0 160 0 160 115 0 c96 0 115
-3 115 -15z m1170 0 c0 -12 -13 -15 -55 -15 l-55 0 0 -145 c0 -138 -1 -145
-20 -145 -19 0 -20 7 -20 145 l0 145 -55 0 c-42 0 -55 3 -55 15 0 13 21 15
130 15 109 0 130 -2 130 -15z"/>
<path d="M18550 12958 c-97 -144 -231 -311 -360 -449 -56 -60 -101 -111 -99
-113 10 -7 183 -66 194 -66 18 0 162 180 257 322 71 105 218 353 218 368 0 6
-118 51 -130 50 -3 -1 -39 -51 -80 -112z"/>
<path d="M9320 12523 c-111 -5 -337 -24 -420 -34 -469 -57 -941 -197 -1212
-359 -32 -19 -58 -37 -58 -41 0 -3 107 -44 238 -92 l237 -87 85 10 c293 34
791 32 1155 -5 406 -41 1101 -153 2430 -392 77 -13 241 -42 365 -63 124 -21
329 -57 455 -79 127 -22 275 -47 330 -55 55 -9 201 -31 325 -51 387 -60 879
-111 1330 -135 389 -22 519 -80 -1262 567 l-1573 573 -235 44 c-734 139 -1389
209 -1925 204 -115 -1 -235 -3 -265 -5z"/>
<path d="M8698 12513 c6 -2 18 -2 25 0 6 3 1 5 -13 5 -14 0 -19 -2 -12 -5z"/>
<path d="M16418 11773 c7 -3 16 -2 19 1 4 3 -2 6 -13 5 -11 0 -14 -3 -6 -6z"/>
<path d="M18949 12713 c-56 -112 -144 -275 -196 -361 -52 -85 -90 -158 -86
-162 11 -10 214 -83 218 -78 19 21 161 459 209 646 l34 133 -26 10 c-15 5 -32
11 -39 14 -6 2 -54 -82 -114 -202z"/>
<path d="M10455 11056 c17 -7 1024 -375 2239 -817 2017 -734 2205 -804 2170
-811 -142 -27 -1091 -32 -1494 -8 -709 41 -1706 147 -2150 226 -107 20 -233
41 -280 49 -47 7 -197 34 -335 59 -728 134 -1052 187 -1130 185 -22 0 102 -25
275 -54 173 -29 498 -87 722 -129 1013 -188 1358 -237 2243 -316 945 -83 1790
-92 2455 -24 684 69 1224 212 1714 455 78 38 152 78 166 90 l25 20 -32 -15
c-79 -39 -48 -10 57 52 155 92 302 194 293 203 -4 4 -314 118 -687 254 l-680
246 -93 -16 c-166 -28 -432 -54 -672 -67 -429 -22 -731 2 -2471 192 -399 44
-871 95 -1050 114 -354 38 -1107 112 -1235 120 -73 5 -77 5 -50 -8z"/>
<path d="M16178 10803 c7 -3 16 -2 19 1 4 3 -2 6 -13 5 -11 0 -14 -3 -6 -6z"/>
<path d="M10487 7793 c-4 -3 -7 -84 -7 -180 l0 -173 349 0 c192 0 363 3 380 6
52 11 74 53 79 154 5 102 -11 150 -60 180 -31 19 -50 20 -384 20 -193 0 -354
-3 -357 -7z"/>
<path d="M12454 7718 c-21 -40 -42 -80 -46 -89 -4 -10 -11 -20 -17 -24 -6 -3
-11 -15 -11 -26 0 -10 -3 -19 -7 -19 -8 0 -33 -48 -33 -63 0 -4 -11 -23 -25
-41 -14 -18 -25 -37 -25 -43 0 -5 -16 -35 -35 -67 -19 -32 -35 -60 -35 -62 0
-8 559 -4 563 4 3 4 -6 25 -18 47 -13 22 -43 76 -66 120 -59 111 -62 118 -78
138 -8 9 -11 17 -6 17 4 0 2 7 -6 16 -7 9 -30 48 -50 87 -20 40 -44 73 -52 75
-9 2 -29 -24 -53 -70z"/>
<path d="M12060 6204 c-34 -14 -40 -37 -40 -165 0 -121 1 -129 22 -143 29 -20
100 -20 138 -1 l30 16 0 127 c0 87 -4 134 -12 145 -14 17 -110 32 -138 21z"/>
<path d="M8714 6202 c-6 -4 -10 -36 -9 -72 l1 -65 56 -3 c49 -3 58 0 72 20 41
58 5 128 -67 128 -23 0 -47 -4 -53 -8z"/>
<path d="M13192 6202 c-9 -6 -12 -29 -10 -73 l3 -64 48 -3 c70 -5 97 16 97 72
0 27 -6 48 -15 56 -19 16 -105 24 -123 12z"/>
<path d="M14316 6201 c-6 -9 -9 -170 -6 -307 0 -14 12 -16 78 -13 112 6 112 5
112 158 0 86 -4 133 -12 144 -16 21 -161 37 -172 18z"/>
<path d="M11213 2286 c-68 -31 -93 -123 -50 -187 61 -91 206 -66 238 41 21 70
-36 147 -117 156 -22 2 -53 -2 -71 -10z"/>
<path d="M15140 2254 l0 -46 80 4 c80 3 99 12 100 45 0 30 -32 43 -106 43
l-74 0 0 -46z"/>
<path d="M16302 2245 c-11 -23 -9 -25 12 -25 19 0 23 4 19 20 -8 31 -19 32
-31 5z"/>
</g>
</svg>
